<svg class="" id="outputsvg" xmlns="http://www.w3.org/2000/svg" style="transform: matrix(1, 0, 0, 1, 0, 0); transform-origin: 50% 50%; cursor: move; transition: transform 200ms ease-in-out;" width="64" height="64" viewBox="0 0 640 640"><g id="l7jQ0OpemM0i2bVdpXBbBtK" fill="#ffffff00" style="transform: none; transform-origin: 50% 50%;"><g style="transform: none;"><path id="p15KIl1uG7" d="M0 490 c0 -143 1 -150 20 -150 15 0 20 -7 20 -25 0 -18 -5 -25 -20 -25 -19 0 -20 -7 -20 -145 l0 -145 150 0 c143 0 150 1 150 20 0 14 -7 20 -21 20 -34 0 -138 61 -170 99 -27 33 -69 111 -69 128 0 5 20 7 45 5 42 -4 44 -2 50 25 13 62 26 102 35 108 6 4 6 -4 0 -20 -16 -42 -12 -105 10 -151 24 -48 73 -74 141 -74 43 0 108 23 121 43 5 7 8 -1 8 -20 0 -22 -6 -36 -20 -43 -15 -8 -20 -21 -20 -51 0 -36 -3 -40 -30 -45 -21 -5 -30 -12 -30 -25 0 -18 10 -19 145 -19 l145 0 0 145 0 145 -39 0 c-30 0 -44 -6 -58 -24 -10 -13 -32 -26 -50 -29 -31 -6 -32 -5 -23 19 26 67 1 158 -52 197 -32 24 -114 33 -160 19 -32 -11 -32 -11 -10 5 17 12 22 25 22 59 0 38 -3 44 -21 44 -18 0 -19 2 -5 15 8 8 19 15 25 15 6 0 11 7 11 15 0 13 -22 15 -140 15 l-140 0 0 -150z"></path><path id="p1FWQe5Rqf" d="M350 625 c0 -8 7 -15 15 -15 9 0 21 -5 28 -11 7 -6 36 -24 65 -40 55 -31 117 -104 127 -151 4 -16 11 -28 16 -28 5 0 9 -7 9 -15 0 -8 7 -15 15 -15 13 0 15 23 15 145 l0 145 -145 0 c-122 0 -145 -2 -145 -15z"></path></g></g><g id="l3Ey4uqFRTITt4CuhIKEbPK" fill="rgb(255,255,255)" style="transform: none; transform-origin: 50% 50%;"><g style="transform: none;"><path id="pjQvHMnWm" d="M219 624 c-160 -56 -254 -238 -204 -396 39 -126 150 -214 282 -224 44 -4 82 -1 108 8 38 12 40 15 37 50 -3 29 1 39 17 48 15 8 21 21 21 45 0 38 23 58 56 49 13 -3 24 4 36 25 9 17 26 31 40 33 19 2 24 10 26 43 2 22 -4 67 -13 101 -35 131 -148 222 -287 230 -51 3 -87 -1 -119 -12z m21 -87 c0 -7 -20 -27 -43 -44 -46 -32 -87 -100 -87 -144 0 -32 -15 -53 -30 -44 -16 10 -6 75 19 123 35 68 141 150 141 109z m124 -101 c72 -30 100 -101 66 -171 -17 -35 -30 -47 -66 -61 -41 -16 -47 -16 -88 0 -36 14 -49 26 -66 61 -33 69 -7 140 64 171 40 17 49 17 90 0z"></path></g></g></svg>