<svg class="img-fluid" id="outputsvg" xmlns="http://www.w3.org/2000/svg" style="transform: none; transform-origin: 50% 50%; cursor: move;" width="64" height="64" viewBox="0 0 640 640"><g id="lxr8njAY3lEB72Dkx7yStM" fill="#ffffff00" style="transform: none;"><g><path id="p75Tr5PxT" d="M0 495 c0 -159 5 -169 54 -120 19 19 35 25 71 25 44 0 45 0 45 33 0 21 -8 41 -20 52 -25 23 -25 62 0 100 34 51 29 55 -65 55 l-85 0 0 -145z"></path><path id="pg1phEDjK" d="M550 628 c0 -7 9 -26 20 -43 26 -39 25 -68 -3 -100 -17 -20 -35 -28 -70 -32 -44 -5 -47 -7 -47 -35 0 -17 9 -41 20 -55 11 -14 20 -33 20 -43 0 -10 -9 -29 -20 -43 -11 -14 -20 -39 -20 -55 0 -29 2 -30 55 -34 31 -3 63 -12 73 -21 10 -9 28 -17 40 -17 22 0 22 0 22 245 l0 245 -45 0 c-29 0 -45 -4 -45 -12z"></path><path id="p14rq3GNUw" d="M0 145 l0 -145 100 0 c111 0 121 8 75 54 -30 30 -32 65 -5 99 11 14 20 39 20 56 0 31 0 31 -55 31 -46 0 -60 4 -81 25 -49 49 -54 39 -54 -120z"></path><path id="pSb2sOIHL" d="M588 52 c-16 -9 -28 -25 -28 -34 0 -14 8 -18 40 -18 39 0 40 1 40 35 0 39 -11 43 -52 17z"></path></g></g><g id="l1vOCnrNuaIa2y3Lba8x4JO" fill="rgb(8,8,8)" style="transform: none;"><g><path id="pwTfEOH8w" d="M570 600 c0 -25 4 -30 25 -30 29 0 31 7 9 38 -21 30 -34 28 -34 -8z"></path><path id="p6IaVCXoO" d="M100 492 c0 -11 9 -27 20 -37 20 -18 20 -17 20 18 0 30 -4 37 -20 37 -13 0 -20 -7 -20 -18z"></path><path id="p1GahUNhhp" d="M25 405 c-32 -31 -32 -45 0 -45 14 0 25 4 25 9 0 5 9 13 20 16 11 3 20 15 20 26 0 27 -35 24 -65 -6z"></path><path id="pqYLbTipQ" d="M0 270 c0 -19 48 -60 70 -60 27 0 27 36 0 45 -11 3 -20 11 -20 16 0 5 -11 9 -25 9 -14 0 -25 -5 -25 -10z"></path><path id="p16yYlXvK3" d="M130 225 c0 -8 7 -15 17 -15 14 0 14 -2 -2 -20 -18 -20 -17 -20 18 -20 36 0 37 1 37 35 0 33 -2 35 -35 35 -24 0 -35 -5 -35 -15z"></path><path id="pO3joeAZ2" d="M610 166 c0 -16 5 -26 15 -26 8 0 15 6 15 14 0 7 -7 19 -15 26 -13 11 -15 8 -15 -14z"></path><path id="p1A1Hbfzlb" d="M120 72 c0 -21 27 -62 41 -62 10 0 12 40 3 64 -9 22 -44 21 -44 -2z"></path></g></g><g id="l3cMSk6Vjv9HIahtkWRyb2I" fill="rgb(16,16,16)" style="transform: none;"><g><path id="pXFZ8o3na" d="M550 615 c0 -16 6 -25 15 -25 8 0 15 -9 15 -20 0 -13 7 -20 20 -20 28 0 26 31 -5 64 -30 33 -45 33 -45 1z"></path><path id="pAkIHmImU" d="M35 412 c-5 -4 -16 -15 -24 -24 -12 -16 -11 -18 18 -18 26 0 31 4 31 25 0 25 -7 30 -25 17z"></path><path id="p6ykPaDJy" d="M11 253 c31 -40 49 -43 49 -8 0 21 -5 25 -31 25 -29 0 -30 -2 -18 -17z"></path><path id="phkmShHwf" d="M130 171 c-16 -31 -12 -51 10 -51 16 0 20 7 20 35 0 39 -14 46 -30 16z"></path><path id="pJrfQxL4j" d="M136 35 c6 -14 35 -35 48 -35 3 0 6 11 6 25 0 21 -5 25 -30 25 -22 0 -28 -4 -24 -15z"></path></g></g><g id="l3pBjBLKBNm5Mb853vRfdPo" fill="rgb(25,25,25)" style="transform: none;"><g><path id="p19cVkKE6Y" d="M125 615 c-30 -30 -32 -45 -4 -45 26 0 49 23 49 49 0 28 -15 26 -45 -4z"></path><path id="plw3RsgBw" d="M560 611 c0 -26 4 -31 25 -31 35 0 32 18 -7 49 -16 12 -18 11 -18 -18z"></path><path id="p1Gimz7mol" d="M540 446 c0 -19 4 -23 19 -19 11 3 27 14 37 24 17 18 16 19 -19 19 -32 0 -37 -3 -37 -24z"></path><path id="pLrA3VL0V" d="M143 188 c-6 -7 -13 -21 -16 -30 -5 -14 -1 -18 18 -18 21 0 25 5 25 30 0 32 -11 39 -27 18z"></path></g></g><g id="l5ZZHyzBYrLgQIZs3zlkgSE" fill="rgb(33,33,33)" style="transform: none;"><g><path id="p1ADGZ57nn" d="M17 392 c-23 -26 -22 -52 3 -52 16 0 20 7 20 35 0 40 -1 41 -23 17z"></path><path id="pbkj8TW0H" d="M0 282 c0 -11 9 -27 20 -37 20 -18 20 -17 20 18 0 30 -4 37 -20 37 -13 0 -20 -7 -20 -18z"></path><path id="p1Bv8MzFrN" d="M560 194 c0 -21 5 -24 37 -24 35 0 36 1 19 19 -10 10 -26 21 -37 24 -15 4 -19 0 -19 -19z"></path><path id="pVwaS25Lh" d="M130 53 c0 -11 12 -26 33 -42 15 -12 17 -11 17 18 0 26 -4 31 -25 31 -14 0 -25 -3 -25 -7z"></path></g></g><g id="l7f0QwQuoulxJ2BjXljFI2J" fill="rgb(41,41,41)" style="transform: none;"><g><path id="p17Bzij4CO" d="M540 625 c0 -10 10 -15 26 -15 22 0 25 2 14 15 -7 8 -19 15 -26 15 -8 0 -14 -7 -14 -15z"></path><path id="pDGXHujG1" d="M112 600 c-18 -29 -15 -50 8 -50 16 0 20 7 20 35 0 39 -9 44 -28 15z"></path><path id="p6YKHdzaz" d="M125 450 c16 -18 16 -20 2 -20 -10 0 -17 -7 -17 -15 0 -10 11 -15 35 -15 33 0 35 2 35 35 0 34 -1 35 -37 35 -35 0 -36 0 -18 -20z"></path><path id="p1FNveONxE" d="M480 365 c0 -28 4 -35 20 -35 22 0 26 20 10 51 -16 30 -30 23 -30 -16z"></path><path id="py7xrZ1sY" d="M480 275 c0 -39 14 -46 30 -16 16 31 12 51 -10 51 -16 0 -20 -7 -20 -35z"></path><path id="pX1AMj0lr" d="M530 200 c0 -16 7 -20 35 -20 39 0 46 14 16 30 -31 16 -51 12 -51 -10z"></path></g></g><g id="l1sfwBOHkJ2fMzcHM2wXDAm" fill="rgb(49,49,49)" style="transform: none;"><g><path id="pM5LeRMVT" d="M132 620 c-29 -27 -28 -40 3 -40 21 0 25 5 25 30 0 36 0 36 -28 10z"></path><path id="pRKM3ohNM" d="M120 220 c0 -5 12 -10 28 -11 15 0 21 -3 14 -6 -7 -2 -17 -13 -22 -24 -10 -17 -7 -19 20 -19 28 0 30 3 30 35 0 33 -2 35 -35 35 -19 0 -35 -4 -35 -10z"></path></g></g><g id="l2uzs52YFeScgEAOOmL02Cs" fill="rgb(58,58,58)" style="transform: none;"><g><path id="p19DRK9knm" d="M140 625 c-11 -13 -8 -15 14 -15 16 0 26 5 26 15 0 8 -6 15 -14 15 -7 0 -19 -7 -26 -15z"></path><path id="pIOG5oa70" d="M440 415 c0 -24 5 -35 15 -35 8 0 15 -7 15 -15 0 -9 9 -15 25 -15 27 0 26 19 -3 53 -14 15 -13 17 1 17 10 0 17 7 17 15 0 10 -11 15 -35 15 -33 0 -35 -2 -35 -35z"></path><path id="pFbKRdH9K" d="M470 275 c0 -8 -7 -15 -15 -15 -10 0 -15 -11 -15 -35 0 -33 2 -35 35 -35 24 0 35 5 35 15 0 8 -7 15 -17 15 -14 0 -15 2 -1 18 29 33 30 52 3 52 -16 0 -25 -6 -25 -15z"></path><path id="pw88TM6dV" d="M138 211 c33 -6 33 -6 12 -23 -27 -24 -25 -38 5 -38 22 0 25 4 25 35 0 34 -1 35 -37 34 l-38 -2 33 -6z"></path><path id="pZ1Bog19q" d="M155 20 c10 -11 26 -20 37 -20 11 0 18 7 18 20 0 16 -7 20 -37 20 -35 0 -36 0 -18 -20z"></path></g></g><g id="l5JWAikbzf6eMQVQsvWaFqq" fill="rgb(66,66,66)" style="transform: none;"><g><path id="pqp8CnMK1" d="M574 490 c-5 -25 -11 -30 -35 -30 -22 0 -29 -5 -29 -20 0 -24 20 -26 60 -5 48 25 69 85 30 85 -15 0 -22 -9 -26 -30z"></path><path id="p1WR4G0Gw" d="M48 419 c-29 -16 -21 -29 17 -29 28 0 35 4 35 20 0 22 -24 26 -52 9z"></path><path id="pjw83urUX" d="M583 55 c-16 -17 -17 -55 -3 -55 14 0 60 46 60 60 0 15 -43 12 -57 -5z"></path></g></g><g id="l5IovTv9K6gSkCewloLmeKq" fill="rgb(74,74,74)" style="transform: none;"><g><path id="pMA9vUhDJ" d="M30 240 c0 -12 33 -30 54 -30 9 0 16 9 16 20 0 16 -7 20 -35 20 -19 0 -35 -4 -35 -10z"></path><path id="p7HaBdOf6" d="M520 200 c0 -16 7 -20 35 -20 40 0 49 24 13 34 -38 10 -48 7 -48 -14z"></path></g></g><g id="l1BAYVEdpAiUIufm7JegWKD" fill="rgb(82,82,82)" style="transform: none;"><g><path id="pWckoPxu4" d="M430 215 l0 -35 75 0 c57 0 75 3 75 14 0 16 -30 26 -79 26 -33 0 -34 1 -15 15 18 13 17 14 -18 15 -37 0 -38 -1 -38 -35z"></path><path id="p1G1eZIXvy" d="M590 170 c0 -25 4 -30 25 -30 29 0 31 7 9 38 -21 30 -34 28 -34 -8z"></path></g></g><g id="l1saem16SBcxiUnid7DYbo1" fill="rgb(90,90,90)" style="transform: none;"><g><path id="p183JhaTpe" d="M580 575 c0 -28 4 -35 20 -35 22 0 26 20 10 51 -16 30 -30 23 -30 -16z"></path><path id="pbk0Rw8b8" d="M130 161 c-16 -31 -12 -51 10 -51 16 0 20 7 20 35 0 39 -14 46 -30 16z"></path></g></g><g id="l7Xi3MUrPaLsAASiSoxjgjO" fill="rgb(99,99,99)" style="transform: none;"><g><path id="pi9dpe6SM" d="M550 455 c0 -14 3 -25 6 -25 13 0 42 21 48 35 4 11 -2 15 -24 15 -25 0 -30 -4 -30 -25z"></path><path id="pLHssDq77" d="M610 156 c0 -16 5 -26 15 -26 8 0 15 6 15 14 0 7 -7 19 -15 26 -13 11 -15 8 -15 -14z"></path></g></g><g id="l2gkZpTzscU7SzT2B1yxc1W" fill="rgb(107,107,107)" style="transform: none;"><g><path id="p1DcFZnqNX" d="M100 492 c0 -13 30 -52 41 -52 5 0 9 14 9 30 0 25 -4 30 -25 30 -14 0 -25 -3 -25 -8z"></path><path id="ppBkeU8O" d="M500 440 c0 -21 10 -24 48 -14 36 10 27 34 -13 34 -28 0 -35 -4 -35 -20z"></path><path id="peMLcQl7t" d="M55 420 c-12 -4 -27 -15 -34 -24 -12 -14 -9 -16 23 -16 32 0 36 3 36 25 0 14 -1 25 -2 24 -2 0 -12 -4 -23 -9z"></path><path id="pdYQ0HKAy" d="M480 355 c0 -28 4 -35 20 -35 22 0 26 20 10 51 -16 30 -30 23 -30 -16z"></path><path id="p19J0Tc81B" d="M570 185 c0 -21 5 -25 30 -25 22 0 28 4 24 15 -6 14 -35 35 -48 35 -3 0 -6 -11 -6 -25z"></path><path id="pnXsOWDEE" d="M580 30 c0 -27 2 -29 19 -19 10 7 23 20 30 30 10 17 8 19 -19 19 -27 0 -30 -3 -30 -30z"></path></g></g><g id="lcfKMkRn0LmPXAFlPiZOJf" fill="rgb(115,115,115)" style="transform: none;"><g><path id="pYP208oqY" d="M452 403 c3 -33 7 -38 31 -41 32 -4 35 10 7 38 l-20 20 31 0 c17 0 28 4 24 10 -3 6 -22 10 -41 10 -35 0 -35 -1 -32 -37z"></path><path id="pG7BiEMac" d="M480 300 c0 -11 -4 -20 -10 -20 -5 0 -10 -7 -10 -15 0 -8 -9 -15 -20 -15 -16 0 -20 -7 -20 -35 0 -33 2 -35 35 -35 24 0 35 5 35 15 0 8 -8 15 -17 15 -16 0 -15 3 3 18 44 35 58 92 24 92 -13 0 -20 -7 -20 -20z"></path><path id="pKF6sXGaS" d="M24 241 c10 -10 26 -21 37 -24 15 -4 19 0 19 19 0 21 -5 24 -37 24 -35 0 -36 -1 -19 -19z"></path><path id="pwoyjtFW3" d="M140 225 c0 -8 7 -15 17 -15 14 0 14 -2 -2 -20 -18 -20 -17 -20 18 -20 36 0 37 1 37 35 0 33 -2 35 -35 35 -24 0 -35 -5 -35 -15z"></path><path id="pjjRcdKFI" d="M120 84 c0 -21 18 -54 30 -54 6 0 10 16 10 35 0 28 -4 35 -20 35 -11 0 -20 -7 -20 -16z"></path><path id="pFoPU8W8x" d="M610 60 c0 -16 -7 -20 -30 -20 -23 0 -30 -4 -30 -20 0 -29 31 -25 63 8 30 31 35 52 12 52 -8 0 -15 -9 -15 -20z"></path></g></g><g id="l4ZqM9ut6qMGLTgAB06CmCn" fill="rgb(123,123,123)" style="transform: none;"><g><path id="p151OvDxTa" d="M100 503 c1 -19 22 -53 34 -53 3 0 6 16 6 35 0 28 -4 35 -20 35 -13 0 -20 -7 -20 -17z"></path><path id="pVhiabMpQ" d="M560 459 c0 -29 2 -30 18 -18 39 31 42 49 7 49 -21 0 -25 -5 -25 -31z"></path><path id="pF2JGXA4Y" d="M450 245 c0 -35 18 -32 49 8 12 15 11 17 -18 17 -26 0 -31 -4 -31 -25z"></path><path id="p1DLb0uBJT" d="M468 203 c12 -2 30 -2 40 0 9 3 -1 5 -23 4 -22 0 -30 -2 -17 -4z"></path></g></g><g id="l7Gn9oQNaYPOqRqDPGKB6Bx" fill="rgb(132,132,132)" style="transform: none;"><g><path id="p11636V7Yh" d="M530 625 c0 -8 9 -15 20 -15 15 0 20 -7 20 -25 0 -20 5 -25 24 -25 19 0 23 4 19 20 -11 40 -83 79 -83 45z"></path><path id="p1CqjtDn2g" d="M110 591 c-16 -31 -12 -51 10 -51 16 0 20 7 20 35 0 39 -14 46 -30 16z"></path><path id="pS6GWtMim" d="M120 461 c5 -11 15 -22 22 -24 7 -3 -5 -6 -27 -6 -58 -1 -115 -43 -115 -83 0 -11 7 -18 20 -18 16 0 20 7 20 30 0 28 3 30 35 30 19 0 35 5 35 10 0 6 14 10 30 10 28 0 30 3 30 35 0 32 -2 35 -30 35 -27 0 -30 -2 -20 -19z"></path><path id="pFL2i6mIL" d="M430 425 c0 -33 2 -35 31 -35 27 0 30 2 19 15 -10 13 -9 15 11 15 40 0 69 12 69 26 0 11 -16 14 -65 14 l-65 0 0 -35z"></path><path id="pHNH9mnBB" d="M0 292 c0 -22 16 -43 50 -66 34 -22 60 -21 60 4 0 16 -7 20 -35 20 -32 0 -35 2 -35 30 0 23 -4 30 -20 30 -13 0 -20 -7 -20 -18z"></path><path id="p1Fjuga9RM" d="M580 181 c0 -26 4 -31 25 -31 35 0 32 18 -7 49 -16 12 -18 11 -18 -18z"></path></g></g><g id="l4rT8veS2aM5c1PVcrbYvj5" fill="rgb(140,140,140)" style="transform: none;"><g><path id="pmp9kiaZ7" d="M480 345 c0 -28 4 -35 20 -35 21 0 24 10 14 48 -10 36 -34 27 -34 -13z"></path><path id="poQopR5zM" d="M126 148 c-10 -38 -7 -48 14 -48 16 0 20 7 20 35 0 40 -24 49 -34 13z"></path></g></g><g id="l2zq8DBSKVYuSo2SE2wIs8Z" fill="rgb(148,148,148)" style="transform: none;"><g><path id="p2dwSAh1t" d="M153 633 c-22 -8 -14 -23 12 -23 16 0 25 6 25 15 0 15 -14 18 -37 8z"></path><path id="pWiE1gmqe" d="M23 398 c-6 -7 -13 -21 -16 -30 -5 -14 -1 -18 18 -18 21 0 25 5 25 30 0 32 -11 39 -27 18z"></path><path id="pz4elRjC2" d="M480 295 c0 -40 24 -49 34 -12 10 37 7 47 -14 47 -16 0 -20 -7 -20 -35z"></path><path id="pRLt8Cbnv" d="M7 273 c17 -49 43 -56 43 -13 0 25 -4 30 -25 30 -19 0 -23 -4 -18 -17z"></path><path id="p1JX7Efm2" d="M147 182 c-23 -26 -22 -52 3 -52 16 0 20 7 20 35 0 40 -1 41 -23 17z"></path></g></g><g id="l3NOR0WLotpPGCRgp37ijWo" fill="rgb(156,156,156)" style="transform: none;"><g><path id="pkuWvkeuK" d="M540 614 c0 -17 6 -24 20 -24 16 0 20 -7 20 -30 0 -23 4 -30 20 -30 12 0 20 7 20 18 0 27 -36 79 -59 85 -17 4 -21 1 -21 -19z"></path><path id="p17xBDa8Ht" d="M110 480 c0 -5 10 -18 22 -30 l22 -20 -30 0 c-44 0 -74 -11 -74 -26 0 -9 12 -14 35 -14 24 0 35 5 35 15 0 8 9 15 20 15 16 0 20 7 20 35 0 31 -3 35 -25 35 -14 0 -25 -4 -25 -10z"></path><path id="p1HC3YJ8Sq" d="M420 425 c0 -34 1 -35 37 -35 35 0 36 0 18 20 -16 18 -16 20 -2 20 10 0 17 7 17 15 0 10 -11 15 -35 15 -33 0 -35 -2 -35 -35z"></path><path id="pRThrtQL9" d="M50 236 c0 -13 28 -26 58 -26 6 0 12 9 12 20 0 16 -7 20 -35 20 -23 0 -35 -5 -35 -14z"></path><path id="pycMT0EHf" d="M550 190 c0 -16 7 -20 37 -20 35 0 36 0 18 20 -10 11 -26 20 -37 20 -11 0 -18 -7 -18 -20z"></path><path id="pFhpo1sQl" d="M126 138 c-10 -38 -7 -48 14 -48 16 0 20 7 20 35 0 40 -24 49 -34 13z"></path><path id="pfjtrn2qD" d="M127 61 c3 -11 14 -27 24 -37 18 -17 19 -16 19 19 0 32 -3 37 -24 37 -19 0 -23 -4 -19 -19z"></path></g></g><g id="l5xmCGrF53WdBeYiuwt6iem" fill="rgb(165,165,165)" style="transform: none;"><g><path id="p4kVH0OMs" d="M128 613 c-29 -34 -30 -53 -3 -53 22 0 25 4 25 35 0 40 -1 41 -22 18z"></path><path id="p1Hs8E5I1i" d="M480 320 c0 -36 4 -50 14 -50 17 0 28 42 20 75 -11 46 -34 30 -34 -25z"></path><path id="pzUNrfJwu" d="M410 215 c0 -33 2 -35 35 -35 24 0 35 5 35 15 0 8 -8 15 -17 15 -17 1 -17 1 0 11 28 16 20 29 -18 29 -33 0 -35 -2 -35 -35z"></path><path id="pn3gbSYqA" d="M126 128 c-11 -42 -7 -58 14 -58 17 0 20 7 20 40 0 45 -23 57 -34 18z"></path></g></g><g id="lQvzhkVbgk9Tn14paN5QXq" fill="rgb(173,173,173)" style="transform: none;"><g><path id="plyigKKe2" d="M580 495 c0 -39 14 -46 30 -16 16 31 12 51 -10 51 -16 0 -20 -7 -20 -35z"></path><path id="p3IKpVAy3" d="M140 445 c10 -13 9 -15 -11 -15 -40 0 -69 -12 -69 -26 0 -11 17 -14 70 -14 l70 0 0 35 c0 34 -1 35 -36 35 -31 0 -35 -2 -24 -15z"></path><path id="p4XlLgCl8" d="M60 236 c0 -16 30 -26 84 -26 37 0 39 -1 20 -15 -18 -13 -17 -14 19 -15 36 0 37 1 37 35 l0 35 -80 0 c-61 0 -80 -3 -80 -14z"></path><path id="p17mS2rG3l" d="M126 105 c-8 -30 -1 -45 20 -45 9 0 14 11 14 35 0 42 -24 49 -34 10z"></path></g></g><g id="l01NWXxtNYAChXbToiaPseb" fill="rgb(181,181,181)" style="transform: none;"><g><path id="pbiAJ9HuR" d="M151 627 c-37 -18 -38 -37 -2 -37 26 0 31 4 31 25 0 29 2 28 -29 12z"></path><path id="p10BKyVSGV" d="M580 555 c0 -28 4 -35 20 -35 21 0 24 10 14 48 -10 36 -34 27 -34 -13z"></path><path id="pYUduP8dj" d="M530 450 c0 -13 7 -20 18 -20 11 0 27 9 37 20 18 20 17 20 -18 20 -30 0 -37 -4 -37 -20z"></path><path id="pgyEXKZNi" d="M160 235 c0 -8 8 -15 18 -15 16 -1 16 -1 0 -14 -26 -20 -22 -26 17 -26 33 0 35 2 35 35 0 33 -2 35 -35 35 -24 0 -35 -5 -35 -15z"></path><path id="p13VKxcgVB" d="M400 215 c0 -33 2 -35 35 -35 37 0 50 25 18 33 -17 4 -17 5 0 6 9 0 17 8 17 16 0 10 -11 15 -35 15 -33 0 -35 -2 -35 -35z"></path><path id="ppi4GiNO1" d="M610 145 c0 -16 6 -25 15 -25 16 0 19 9 9 34 -9 25 -24 19 -24 -9z"></path><path id="p11cxvv3Ij" d="M126 94 c-7 -19 27 -79 50 -88 29 -11 44 -6 44 14 0 16 -7 20 -30 20 -28 0 -30 3 -30 35 0 37 -22 49 -34 19z"></path></g></g><g id="l3ODdcDoxIvo78Pl9xdt6s1" fill="rgb(189,189,189)" style="transform: none;"><g><path id="pKuEmACzS" d="M110 581 c-16 -31 -12 -51 10 -51 16 0 20 7 20 35 0 39 -14 46 -30 16z"></path><path id="pnjV96qHF" d="M580 540 c0 -33 3 -40 20 -40 21 0 25 16 14 58 -11 39 -34 27 -34 -18z"></path><path id="pyW9KSrBA" d="M140 450 c0 -5 8 -14 18 -19 16 -10 16 -10 0 -11 -10 0 -18 -7 -18 -15 0 -10 11 -15 35 -15 33 0 35 2 35 35 0 33 -2 35 -35 35 -19 0 -35 -4 -35 -10z"></path><path id="pTftxPCaF" d="M410 425 c0 -33 2 -35 35 -35 38 0 46 13 18 29 -17 10 -17 10 0 11 9 0 17 7 17 15 0 10 -11 15 -35 15 -33 0 -35 -2 -35 -35z"></path><path id="p11qmtyxjF" d="M42 413 c-7 -2 -17 -13 -22 -24 -10 -17 -7 -19 20 -19 25 0 30 4 30 25 0 25 -4 28 -28 18z"></path><path id="pQ72NT7VC" d="M16 255 c6 -14 35 -35 48 -35 3 0 6 11 6 25 0 21 -5 25 -30 25 -22 0 -28 -4 -24 -15z"></path><path id="pKQSGRNSo" d="M170 235 c0 -8 8 -15 18 -15 16 -1 16 -1 0 -11 -29 -16 -21 -29 17 -29 33 0 35 2 35 35 0 33 -2 35 -35 35 -24 0 -35 -5 -35 -15z"></path></g></g><g id="l37IP25BjjNJNvxFPuPON33" fill="rgb(197,197,197)" style="transform: none;"><g><path id="p4lip6xEw" d="M131 454 c7 -9 22 -20 34 -24 17 -7 15 -9 -12 -9 -45 -1 -42 -21 2 -21 33 0 35 2 35 35 0 34 -1 35 -36 35 -32 0 -35 -2 -23 -16z"></path><path id="pAexYP25a" d="M400 425 c0 -31 3 -35 35 -41 25 -4 35 -11 35 -25 0 -12 7 -19 20 -19 41 0 9 65 -40 83 -8 3 0 6 18 6 63 2 25 31 -40 31 -25 0 -28 -3 -28 -35z"></path><path id="p16C6JmpYS" d="M32 400 c-29 -27 -28 -40 3 -40 21 0 25 5 25 30 0 36 0 36 -28 10z"></path><path id="p10YODeOyJ" d="M470 281 c0 -25 -35 -31 -176 -31 -92 0 -114 -3 -114 -14 0 -8 8 -17 18 -19 16 -4 16 -5 0 -6 -10 0 -18 -8 -18 -16 0 -13 21 -15 129 -15 134 0 191 6 191 21 0 5 -17 10 -37 10 -22 1 -29 3 -18 6 51 12 89 83 45 83 -13 0 -20 -7 -20 -19z"></path><path id="ppbtbWws6" d="M10 273 c0 -11 12 -26 33 -42 15 -12 17 -11 17 18 0 26 -4 31 -25 31 -14 0 -25 -3 -25 -7z"></path><path id="p17Ol0gQbN" d="M140 41 c0 -10 19 -26 43 -34 13 -5 17 -1 17 18 0 21 -5 25 -30 25 -16 0 -30 -4 -30 -9z"></path></g></g><g id="l38SpW7aPcElCSNwjGqmQS7" fill="rgb(206,206,206)" style="transform: none;"><g><path id="ppSQI9Zzn" d="M520 625 c0 -8 9 -15 20 -15 13 0 20 -7 20 -20 0 -15 7 -20 26 -20 20 0 25 4 20 16 -3 9 -6 17 -6 20 0 6 -58 34 -70 34 -5 0 -10 -7 -10 -15z"></path><path id="p7478TJm6" d="M580 505 c0 -42 24 -49 34 -10 8 30 1 45 -20 45 -9 0 -14 -11 -14 -35z"></path><path id="pPunsAxEt" d="M100 514 c0 -21 18 -54 30 -54 6 0 10 16 10 35 0 28 -4 35 -20 35 -11 0 -20 -7 -20 -16z"></path><path id="pQLGBYqzG" d="M150 450 c0 -5 8 -14 18 -19 16 -10 16 -10 0 -11 -10 0 -18 -7 -18 -15 0 -10 11 -15 35 -15 33 0 35 2 35 35 0 33 -2 35 -35 35 -19 0 -35 -4 -35 -10z"></path><path id="p1545RZ7CW" d="M10 371 c-20 -38 -6 -121 20 -121 6 0 10 32 10 70 0 70 -10 87 -30 51z"></path><path id="pCa8ohZwC" d="M128 103 c-6 -28 2 -53 18 -53 9 0 14 11 14 35 0 37 -24 50 -32 18z"></path><path id="pDw8KwmAj" d="M610 65 c0 -22 -4 -25 -35 -25 -28 0 -35 -4 -35 -20 0 -30 36 -25 70 10 32 33 39 60 15 60 -9 0 -15 -9 -15 -25z"></path></g></g><g id="l78pfU118HGXaK5VrMiRC3E" fill="rgb(214,214,214)" style="transform: none;"><g><path id="p1G0yseSZT" d="M163 633 c-22 -8 -14 -23 12 -23 16 0 25 6 25 15 0 15 -14 18 -37 8z"></path><path id="pk8eiAFDN" d="M550 605 c0 -21 5 -25 31 -25 29 0 30 2 18 18 -31 39 -49 42 -49 7z"></path><path id="pD2T6zump" d="M106 568 c-10 -38 -7 -48 14 -48 16 0 20 7 20 35 0 40 -24 49 -34 13z"></path><path id="p162cOqS8L" d="M570 473 c0 -35 0 -36 20 -18 11 10 20 26 20 37 0 11 -7 18 -20 18 -16 0 -20 -7 -20 -37z"></path><path id="pyGc0OpBa" d="M160 446 c0 -8 8 -17 18 -19 16 -4 16 -5 0 -6 -10 0 -18 -8 -18 -16 0 -13 23 -15 150 -15 123 0 150 3 150 14 0 8 -8 17 -17 19 -17 4 -17 5 0 6 9 0 17 8 17 16 0 13 -23 15 -150 15 -123 0 -150 -3 -150 -14z"></path><path id="pjIIFQLnE" d="M150 230 c0 -5 16 -10 35 -10 19 0 35 5 35 10 0 6 -16 10 -35 10 -19 0 -35 -4 -35 -10z"></path><path id="p1C2HJ61N0" d="M168 199 c-29 -16 -21 -29 17 -29 28 0 35 4 35 20 0 22 -24 26 -52 9z"></path></g></g><g id="l3xqUPCqWgcVtmK07VwEozb" fill="rgb(222,222,222)" style="transform: none;"><g><path id="pwY2E1uge" d="M580 520 c0 -43 23 -57 33 -20 7 28 -3 60 -19 60 -10 0 -14 -13 -14 -40z"></path><path id="plRKOCS4i" d="M148 223 c12 -2 30 -2 40 0 9 3 -1 5 -23 4 -22 0 -30 -2 -17 -4z"></path><path id="pEbz5SECy" d="M171 197 c-37 -18 -38 -37 -2 -37 26 0 31 4 31 25 0 29 2 28 -29 12z"></path><path id="pHoogsR3I" d="M610 135 c0 -16 6 -25 15 -25 16 0 19 9 9 34 -9 25 -24 19 -24 -9z"></path><path id="p19gQDRcRr" d="M590 65 c0 -8 -7 -15 -15 -15 -9 0 -15 -9 -15 -24 0 -19 4 -23 19 -19 22 6 45 29 54 56 5 13 1 17 -18 17 -16 0 -25 -6 -25 -15z"></path><path id="pPYZEgAIX" d="M130 64 c0 -13 21 -42 35 -48 11 -4 15 2 15 24 0 25 -4 30 -25 30 -14 0 -25 -3 -25 -6z"></path></g></g><g id="l2XCVufxMpaOJ7D0m7G6YXS" fill="rgb(230,230,230)" style="transform: none;"><g><path id="pJaixW9Vb" d="M138 619 c-22 -12 -41 -82 -33 -119 3 -15 15 -36 27 -46 l21 -19 -7 66 c-6 55 -5 67 8 72 9 4 16 18 16 32 0 27 -6 30 -32 14z"></path><path id="phCHKli1l" d="M520 450 c0 -22 20 -26 51 -10 30 16 23 30 -16 30 -28 0 -35 -4 -35 -20z"></path><path id="p15xqeoppx" d="M32 397 c-12 -13 -25 -37 -28 -55 -6 -28 -4 -32 15 -32 17 0 21 6 21 35 0 31 3 35 25 35 18 0 25 5 25 20 0 27 -31 26 -58 -3z"></path><path id="p2FmMSyfM" d="M35 240 c10 -11 26 -20 37 -20 11 0 18 7 18 20 0 16 -7 20 -37 20 -35 0 -36 0 -18 -20z"></path><path id="pMKG9pC07" d="M150 180 c-27 -27 -25 -40 5 -40 21 0 25 5 25 30 0 35 -3 37 -30 10z"></path><path id="p1AY59DynS" d="M590 167 c0 -30 4 -37 20 -37 13 0 20 7 20 18 0 11 -9 27 -20 37 -20 18 -20 17 -20 -18z"></path><path id="pMiVlIMHV" d="M610 75 c0 -28 15 -34 24 -9 10 25 7 34 -9 34 -9 0 -15 -9 -15 -25z"></path><path id="pWMmVxYm" d="M142 41 c24 -39 88 -54 88 -21 0 13 -7 20 -20 20 -11 0 -20 5 -20 10 0 6 -14 10 -30 10 -27 0 -29 -2 -18 -19z"></path><path id="pEGFjIEVY" d="M530 20 c0 -22 20 -26 51 -10 30 16 23 30 -16 30 -28 0 -35 -4 -35 -20z"></path></g></g><g id="l14Wh3RrXHhWmx1Z3NOsrnE" fill="rgb(239,239,239)" style="transform: none;"><g><path id="peniC2loy" d="M173 633 c-22 -8 -14 -23 12 -23 16 0 25 6 25 15 0 15 -14 18 -37 8z"></path><path id="pdT2lMXyF" d="M510 625 c0 -9 9 -15 25 -15 28 0 34 15 9 24 -25 10 -34 7 -34 -9z"></path><path id="pe8FmfNbX" d="M382 593 c-5 -14 -18 -18 -62 -18 -33 0 -58 5 -63 13 -5 7 -29 12 -58 12 -42 0 -52 -3 -56 -20 -3 -11 -12 -20 -19 -20 -26 0 -18 -77 11 -106 l25 -25 206 3 c202 3 206 3 225 27 11 14 19 39 19 62 l0 39 -54 0 c-49 0 -55 2 -58 23 -3 19 -10 22 -56 25 -43 3 -54 0 -60 -15z"></path><path id="pVHP9qMCO" d="M75 411 c-38 -6 -40 -8 -43 -43 -2 -27 -8 -38 -19 -38 -12 0 -14 -7 -9 -31 8 -42 28 -59 70 -59 30 0 35 4 39 28 l4 27 2 -27 c1 -26 4 -28 40 -28 36 0 40 3 44 28 l4 27 2 -27 c1 -26 4 -28 40 -28 36 0 40 3 44 28 l4 27 2 -27 c1 -26 4 -28 40 -28 36 0 40 3 44 28 l4 27 2 -27 c1 -26 4 -28 41 -28 36 0 40 3 40 25 0 18 5 25 20 25 17 0 20 7 20 40 0 34 -3 40 -21 40 -16 0 -20 5 -16 19 3 12 -1 22 -10 25 -19 8 -336 5 -388 -3z"></path><path id="prgBcmada" d="M540 190 c0 -16 7 -20 35 -20 39 0 46 14 16 30 -31 16 -51 12 -51 -10z"></path><path id="p7OD92tEy" d="M130 102 c0 -39 5 -53 26 -73 25 -23 31 -24 209 -27 215 -4 245 3 265 63 6 20 9 47 6 61 l-6 24 -250 0 -250 0 0 -48z"></path></g></g><g id="l7jKVEPLDq5DU4IvbYB6qnq" fill="rgb(247,247,247)" style="transform: none;"><g><path id="pyWbEmf5s" d="M383 600 c-13 -15 -30 -20 -70 -20 -29 0 -53 5 -53 10 0 6 -16 10 -35 10 -39 0 -50 -24 -15 -33 13 -3 20 -14 20 -30 0 -25 25 -55 37 -44 3 4 11 17 17 29 17 33 57 31 74 -4 7 -16 17 -28 21 -28 15 0 29 24 33 55 2 25 7 30 31 30 22 -1 27 4 27 22 0 20 -5 23 -35 23 -23 0 -41 -7 -52 -20z"></path><path id="pkpOLFEhC" d="M570 587 c0 -30 4 -37 20 -37 13 0 20 7 20 18 0 11 -9 27 -20 37 -20 18 -20 17 -20 -18z"></path><path id="pmcnhBPTV" d="M477 543 c-12 -12 -7 -41 8 -47 9 -3 20 3 27 14 7 11 18 20 25 20 7 0 13 5 13 10 0 11 -63 14 -73 3z"></path><path id="pYrHJ7MM5" d="M26 391 c-25 -28 -17 -55 19 -62 l30 -7 -27 -1 c-35 -1 -49 -42 -24 -70 21 -23 66 -17 66 10 0 11 5 19 10 19 6 0 10 -9 10 -20 0 -16 7 -20 35 -20 28 0 35 4 35 20 0 11 5 20 10 20 6 0 10 -9 10 -20 0 -16 7 -20 35 -20 28 0 35 4 35 20 0 11 5 20 10 20 6 0 10 -9 10 -20 0 -16 7 -20 35 -20 28 0 35 4 35 20 0 11 5 20 10 20 6 0 10 -9 10 -20 0 -16 7 -20 35 -20 28 0 35 4 35 20 0 16 7 20 30 20 28 0 30 2 30 40 0 38 -2 40 -30 40 -25 0 -30 4 -30 25 0 22 -4 25 -35 25 -31 0 -35 -3 -35 -25 0 -14 -4 -25 -10 -25 -5 0 -10 11 -10 25 0 22 -4 25 -35 25 -28 0 -35 -4 -35 -20 0 -11 -4 -20 -10 -20 -5 0 -10 9 -10 20 0 16 -7 20 -35 20 -28 0 -35 -4 -35 -20 0 -11 -4 -20 -10 -20 -5 0 -10 9 -10 20 0 16 -7 20 -35 20 -28 0 -35 -4 -35 -20 0 -11 -4 -20 -10 -20 -5 0 -10 9 -10 20 0 26 -41 27 -64 1z"></path><path id="pSjqNc9dL" d="M560 184 l0 -24 -185 0 c-178 0 -185 1 -185 20 0 11 -4 20 -10 20 -19 0 -50 -44 -50 -72 0 -28 13 -37 25 -18 4 6 89 10 223 10 181 0 221 -3 240 -16 21 -14 22 -14 22 5 0 11 -7 26 -15 34 -8 8 -11 17 -8 21 9 8 -15 33 -37 39 -16 4 -20 0 -20 -19z"></path><path id="pJIDC8tnJ" d="M342 70 c-40 -6 -72 -24 -61 -35 3 -2 23 0 44 6 39 11 103 8 138 -6 12 -5 17 -2 17 9 0 9 -3 16 -7 16 -5 1 -26 4 -48 8 -22 4 -59 5 -83 2z"></path></g></g><g id="l1kN9JFRjapnEVEXIrDWvhw" fill="rgb(255,255,255)" style="transform: none;"><g><path id="phcCp3rXP" d="M175 633 c-34 -9 -65 -45 -65 -75 0 -24 4 -28 29 -28 20 0 30 6 34 20 3 13 14 20 30 20 25 0 37 -16 37 -51 0 -28 29 -23 40 6 14 36 66 36 80 0 13 -35 40 -33 40 4 0 16 7 37 16 45 23 24 54 4 54 -35 0 -35 27 -51 42 -26 6 12 22 17 53 17 41 0 45 2 45 24 0 14 -11 38 -24 53 l-24 28 -184 2 c-100 1 -192 -1 -203 -4z"></path><path id="p77QXjFTh" d="M43 405 c-32 -23 -47 -77 -33 -120 20 -62 32 -65 253 -65 197 0 198 0 222 25 36 35 36 115 0 150 -24 25 -25 25 -222 25 -161 0 -203 -3 -220 -15z m37 -35 c0 -5 -7 -10 -15 -10 -8 0 -15 5 -15 10 0 6 7 10 15 10 8 0 15 -4 15 -10z m90 0 c0 -5 -7 -10 -15 -10 -8 0 -15 5 -15 10 0 6 7 10 15 10 8 0 15 -4 15 -10z m90 0 c0 -5 -7 -10 -15 -10 -8 0 -15 5 -15 10 0 6 7 10 15 10 8 0 15 -4 15 -10z m90 0 c0 -5 -7 -10 -15 -10 -8 0 -15 5 -15 10 0 6 7 10 15 10 8 0 15 -4 15 -10z m90 0 c0 -5 -7 -10 -15 -10 -8 0 -15 5 -15 10 0 6 7 10 15 10 8 0 15 -4 15 -10z m-318 -45 c0 -5 -5 -11 -11 -13 -6 -2 -11 4 -11 13 0 9 5 15 11 13 6 -2 11 -8 11 -13z m90 0 c0 -5 -5 -11 -11 -13 -6 -2 -11 4 -11 13 0 9 5 15 11 13 6 -2 11 -8 11 -13z m90 0 c0 -5 -5 -11 -11 -13 -6 -2 -11 4 -11 13 0 9 5 15 11 13 6 -2 11 -8 11 -13z m90 0 c0 -5 -5 -11 -11 -13 -6 -2 -11 4 -11 13 0 9 5 15 11 13 6 -2 11 -8 11 -13z m90 0 c0 -5 -5 -11 -11 -13 -6 -2 -11 4 -11 13 0 9 5 15 11 13 6 -2 11 -8 11 -13z m-402 -45 c0 -5 -7 -10 -15 -10 -8 0 -15 5 -15 10 0 6 7 10 15 10 8 0 15 -4 15 -10z m90 0 c0 -5 -7 -10 -15 -10 -8 0 -15 5 -15 10 0 6 7 10 15 10 8 0 15 -4 15 -10z m90 0 c0 -5 -7 -10 -15 -10 -8 0 -15 5 -15 10 0 6 7 10 15 10 8 0 15 -4 15 -10z m90 0 c0 -5 -7 -10 -15 -10 -8 0 -15 5 -15 10 0 6 7 10 15 10 8 0 15 -4 15 -10z m90 0 c0 -5 -7 -10 -15 -10 -8 0 -15 5 -15 10 0 6 7 10 15 10 8 0 15 -4 15 -10z"></path><path id="p13mbTH0r5" d="M159 181 c-17 -17 -29 -40 -29 -55 0 -25 0 -25 35 -10 51 21 398 20 439 -1 16 -9 30 -14 32 -12 2 2 -1 20 -7 40 -17 61 -40 67 -254 67 l-187 0 -29 -29z"></path><path id="pKTjRpga0" d="M315 63 c-48 -12 -27 -18 65 -18 63 0 96 3 89 10 -10 10 -123 17 -154 8z"></path></g></g></svg>