<?xml version="1.0" encoding="utf-8"?>
<!DOCTYPE svg PUBLIC "-//W3C//DTD SVG 1.0//EN" "http://www.w3.org/TR/2001/REC-SVG-20010904/DTD/svg10.dtd">
<svg version="1.0" xmlns="http://www.w3.org/2000/svg" width="582px" height="586px" viewBox="0 0 582 586" preserveAspectRatio="xMidYMid meet">
 <g fill="#ffffff00">
  <path d="M0 293 l0 -293 291 0 291 0 0 293 0 293 -291 0 -291 0 0 -293z m326.9 198.3 c-4.6 -6 -9.6 -12.4 -11.1 -14.3 -3 -3.7 -3.9 -10.4 -1.5 -11.3 0.7 -0.3 -2.3 -4.1 -7.5 -9.4 -7.7 -7.7 -8.8 -9.3 -8.8 -12.3 0 -2.4 0.6 -3.9 2 -4.8 1.1 -0.7 2 -1.9 2 -2.7 0 -0.9 1.4 -1.7 3.8 -2 17.7 -3.1 32.7 -8 46.9 -15.5 39.7 -20.8 66.9 -57.1 76.4 -102 3.2 -14.8 3.2 -36.2 0 -51 -9.8 -45.8 -38 -82.8 -78.9 -103.4 -22.8 -11.5 -51.8 -17.3 -73.9 -14.7 -35.4 4 -64.4 17.6 -88.8 41.6 -25.2 24.7 -39.5 54.6 -43.6 90.8 -1.5 12.8 -0.2 27.7 3.6 43.5 11.6 47.3 46.5 86.2 92.3 103.1 4.5 1.7 14.9 6.9 23.2 11.6 14.5 8.4 15 8.8 15 11.9 0 2.4 -0.6 3.6 -2.1 4.2 -1.9 0.9 -0.7 1.8 10 8.2 11.7 7 12.1 7.4 12.1 10.7 0 2 -0.6 3.7 -1.6 4.3 -1.2 0.6 3.3 3.7 18.3 12.4 10.9 6.4 19.9 11.7 20.1 11.7 0.2 0.1 -3.4 -4.7 -7.9 -10.6z m-187 -250.3 c4.7 -15.7 16.4 -36.9 27.5 -49.8 2.5 -3 4.6 -5.7 4.6 -6.2 0 -0.4 -1.2 -1.1 -2.7 -1.5 -5.1 -1.2 -24.8 -9.2 -33.3 -13.5 -10.3 -5.2 -24.3 -13.8 -31 -19.1 -2.8 -2.2 -5.6 -3.7 -6.2 -3.3 -1.6 1 -0.3 20 2.2 32.3 3.5 17.4 10.1 33.5 19.7 48.6 5 7.8 15 20.5 16.1 20.5 0.4 0 1.8 -3.6 3.1 -8z m306.2 -9.4 c14.4 -21.2 22.7 -44.7 24.5 -69.5 0.6 -7.9 0.5 -9.3 -0.7 -8.6 -0.8 0.5 -4 2.6 -7.1 4.7 -12.8 8.6 -38 20.5 -53.2 25.2 l-6.9 2.1 4.7 5.5 c10.5 12.2 21.9 32.1 26.7 46.7 2.8 8.4 1.8 9 12 -6.1z"/>
  <path d="M265.2 344 c-13.7 -3.6 -26.2 -13.1 -33 -25.1 -9.2 -16.2 -9.6 -40.2 -1 -57.7 3.8 -7.6 12.9 -17.2 20.9 -21.9 7.5 -4.5 19.2 -7.3 29.8 -7.3 16.6 0 30.3 5.3 40.7 15.5 12.1 11.9 17 25.8 16.1 45 -1 21.3 -10 36.7 -27.3 46.5 -11.8 6.8 -31.3 8.9 -46.2 5z"/>
 </g>
 <g fill="#ffc90e">
  <path d="M315 495.1 c-14 -8.2 -25.6 -15.6 -25.8 -16.4 -0.2 -0.9 0.9 -2.2 2.7 -3.2 1.7 -0.8 3.1 -1.7 3.1 -2 0 -0.2 -6.1 -4 -13.5 -8.5 -7.4 -4.5 -13.5 -8.8 -13.5 -9.5 0 -0.8 1.6 -2.3 3.6 -3.3 l3.7 -1.9 -15.2 -8.7 c-8.4 -4.8 -18.8 -10 -23.3 -11.7 -22.9 -8.4 -45.1 -23.8 -60.6 -41.9 -51.1 -59.8 -47.5 -146.6 8.3 -201.5 49.7 -48.9 125.8 -56.3 184 -18 33 21.8 55 54.4 63.6 94.5 3.3 15.1 3.3 41.9 0 57 -9.6 45 -36.8 81.2 -76.4 102 -14.2 7.5 -29.2 12.4 -46.9 15.5 -2.3 0.3 -3.8 1.2 -3.8 2 0 0.8 -1 2.1 -2.2 2.9 -2.2 1.6 -2.2 1.7 8 11.9 5.6 5.6 10.2 10.8 10.2 11.5 0 0.7 -1.1 1.8 -2.5 2.4 -1.4 0.6 -2.5 1.4 -2.5 1.7 0 0.3 6.3 8.7 14 18.6 7.7 9.9 13.9 18.7 13.7 19.5 -0.1 0.8 -0.9 1.6 -1.7 1.7 -0.8 0.2 -13 -6.4 -27 -14.6z m-19.6 -154.1 c28.9 -7.4 46 -36.1 38.8 -64.8 -2.7 -10.6 -7 -18.1 -14.6 -25.7 -9.6 -9.5 -24.2 -15.4 -37.7 -15.5 -7.7 0 -20.3 3.4 -26.8 7.3 -8 4.7 -17.1 14.3 -20.9 21.9 -6.3 12.8 -7.6 24.9 -4.2 38.2 4.9 19.1 19.2 33.6 38.2 38.6 9.5 2.5 17.6 2.5 27.2 0z"/>
 </g>
 <g fill="#ffaec9">
  <path d="M132 250.4 c-18 -21 -29 -42.8 -34 -67.3 -2.5 -12.1 -3.5 -27.3 -2.6 -37.4 l0.8 -7.6 6.6 5.6 c17 14.4 43.3 28.3 70.5 37.3 l6.7 2.2 -5.8 6.6 c-14.3 16.2 -25.5 35.7 -31.3 54.5 -1.7 5.6 -3.4 11 -3.7 12 -0.6 1.4 -1.9 0.3 -7.2 -5.9z"/>
  <path d="M434.6 251 c-0.3 -0.8 -1.9 -5.4 -3.5 -10.2 -5.8 -17 -16.8 -35.7 -29.8 -50.5 l-5.5 -6.3 2.6 -0.9 c1.4 -0.6 5.1 -1.8 8.1 -2.7 17.3 -5 43.4 -18 59.9 -29.9 l7.9 -5.6 -0.6 14.3 c-1.1 28.3 -8.7 51.8 -24.5 75.4 -7.8 11.7 -13.8 18.4 -14.6 16.4z"/>
 </g>
</svg>