<svg class="img-fluid" id="outputsvg" xmlns="http://www.w3.org/2000/svg" style="transform: matrix(1, 0, 0, 1, -8.284, 23.077); transform-origin: 50% 50%; cursor: move;" width="2858" height="1102" viewBox="0 0 28580 11020"><g id="lHNHmrpldQyKoszdd0bCAF" fill="rgb(255,255,255, 0)" style="transform: none;"><g style="transform: none;"><path id="plZAKFccH" d="M0 5510 l0 -5510 14290 0 14290 0 0 5510 0 5510 -14290 0 -14290 0 0 -5510z m18630 2535 c445 -72 753 -345 854 -758 41 -168 50 -254 42 -442 -5 -146 -11 -188 -40 -300 -100 -393 -357 -643 -766 -745 -133 -34 -139 -34 -345 -34 -203 1 -214 2 -332 32 -246 64 -433 180 -574 356 -87 107 -150 238 -195 406 -30 111 -34 145 -40 300 -6 143 -4 193 11 275 35 203 89 342 187 487 160 235 392 372 713 422 124 19 368 20 485 1z m-10860 -57 c232 -54 308 -95 451 -239 96 -99 111 -118 168 -231 98 -196 128 -358 118 -653 -11 -353 -105 -611 -291 -803 -84 -87 -224 -174 -336 -209 -157 -50 -224 -55 -842 -60 l-578 -5 0 1116 0 1117 598 -3 597 -4 115 -26z m1850 -1083 l0 -1115 -325 0 -325 0 0 1115 0 1115 325 0 325 0 0 -1115z m1044 1033 c13 -46 39 -131 57 -190 l32 -108 429 0 c235 0 428 1 428 3 0 2 25 86 55 187 30 101 55 185 55 187 0 2 149 3 331 3 186 0 329 -4 327 -9 -1 -5 -187 -506 -413 -1115 l-410 -1106 -366 0 -365 0 -410 1106 c-225 609 -410 1110 -412 1115 -2 5 135 9 317 9 l320 0 25 -82z m3416 67 c240 -30 305 -51 417 -132 77 -57 173 -179 203 -260 80 -213 38 -435 -110 -583 -61 -61 -150 -113 -250 -145 -62 -21 -65 -23 -68 -56 -2 -33 -1 -35 68 -64 129 -55 240 -183 276 -320 40 -148 -10 -327 -125 -448 -91 -96 -176 -143 -326 -180 -75 -18 -124 -20 -777 -24 l-698 -5 0 1116 0 1116 633 0 c509 0 657 -3 757 -15z m2840 -235 l0 -250 -550 0 -550 0 0 -865 0 -865 -325 0 -325 0 0 1115 0 1115 875 0 875 0 0 -250z m-5372 -2802 c-13 -18 -48 -64 -77 -103 -46 -61 -52 -75 -50 -112 3 -40 -1 -46 -74 -122 -72 -75 -77 -84 -77 -124 l0 -44 73 -12 c334 -56 627 -222 800 -451 22 -30 51 -66 63 -80 39 -44 131 -232 164 -335 17 -55 39 -155 48 -222 14 -107 14 -139 3 -245 -41 -381 -266 -731 -596 -930 -73 -43 -151 -83 -185 -93 -14 -4 -43 -15 -65 -25 -71 -32 -261 -64 -375 -64 -248 0 -533 100 -740 259 -110 85 -290 286 -290 323 0 5 -6 15 -14 21 -23 19 -101 187 -131 281 -14 47 -34 143 -43 213 -15 121 -14 137 2 260 17 129 48 247 88 337 11 24 24 54 29 65 14 34 81 139 128 201 64 84 135 157 200 206 31 23 67 52 81 64 45 40 215 128 297 155 21 6 47 16 58 22 11 6 45 24 75 40 30 16 62 35 70 42 8 7 36 23 63 35 44 22 47 26 47 61 0 21 -5 39 -12 41 -7 3 10 17 37 33 28 15 71 42 98 59 45 30 47 33 45 73 l-2 43 139 80 c77 44 142 80 144 80 2 0 -8 -15 -21 -32z m-5248 -563 c445 -72 753 -345 854 -758 41 -168 50 -254 42 -442 -5 -146 -11 -188 -40 -300 -100 -393 -357 -643 -766 -745 -133 -34 -139 -34 -345 -34 -203 1 -214 2 -332 32 -246 64 -433 180 -574 356 -87 107 -150 238 -195 406 -30 111 -34 145 -40 300 -6 143 -4 193 11 275 35 203 89 342 187 487 160 235 392 372 713 422 124 19 368 20 485 1z m2498 -1 c362 -53 605 -235 707 -530 36 -102 44 -230 21 -328 -28 -118 -71 -191 -171 -291 -78 -79 -104 -97 -195 -142 -135 -66 -272 -111 -507 -168 -349 -83 -395 -101 -429 -166 -25 -49 -16 -164 16 -207 48 -65 86 -77 250 -77 143 0 146 1 206 32 33 17 75 47 91 66 29 34 73 131 73 162 0 8 8 15 18 15 39 0 577 -32 580 -35 8 -7 -21 -118 -44 -176 -97 -238 -299 -374 -629 -425 -143 -22 -423 -14 -565 15 -258 53 -446 183 -539 373 -81 163 -81 313 0 474 99 199 333 336 749 439 298 74 374 106 437 184 l38 45 0 107 c0 105 -1 108 -31 145 -17 22 -58 55 -90 74 l-59 35 -155 0 -156 0 -67 -34 c-111 -56 -171 -141 -198 -278 l-13 -65 -81 6 c-44 3 -168 11 -275 16 -260 15 -244 10 -236 68 29 215 195 465 372 559 95 50 225 89 360 107 139 19 394 19 522 0z m5712 6 c393 -51 659 -279 766 -655 l29 -100 3 -752 3 -753 -325 0 -326 0 -2 768 -3 767 -23 56 c-28 70 -99 144 -172 178 -52 25 -64 26 -215 26 -152 0 -163 -1 -215 -26 -115 -55 -183 -159 -200 -310 -6 -46 -10 -393 -10 -771 l0 -688 -325 0 -325 0 0 633 c0 678 5 789 47 962 44 183 92 273 217 404 153 159 317 230 602 260 112 12 385 12 474 1z m10478 -6 c362 -53 605 -235 707 -530 36 -102 44 -230 21 -328 -28 -118 -71 -191 -171 -291 -78 -79 -104 -97 -195 -142 -135 -66 -272 -111 -507 -168 -349 -83 -395 -101 -429 -166 -25 -49 -16 -164 16 -207 48 -65 86 -77 250 -77 143 0 146 1 206 32 33 17 75 47 91 66 29 34 73 131 73 162 0 8 8 15 18 15 39 0 577 -32 580 -35 8 -7 -21 -118 -44 -176 -97 -238 -299 -374 -629 -425 -143 -22 -423 -14 -565 15 -258 53 -446 183 -539 373 -81 163 -81 313 0 474 99 199 333 336 749 439 298 74 374 106 437 184 l38 45 0 107 c0 105 -1 108 -31 145 -17 22 -58 55 -90 74 l-59 35 -155 0 -156 0 -67 -34 c-111 -56 -171 -141 -198 -278 l-13 -65 -81 6 c-44 3 -168 11 -275 16 -260 15 -244 10 -236 68 29 215 195 465 372 559 95 50 225 89 360 107 139 19 394 19 522 0z m-21848 -491 l0 -466 93 6 c125 8 195 36 250 97 26 29 125 199 255 439 l214 391 355 0 354 0 -59 -112 c-33 -62 -110 -207 -171 -321 -106 -201 -192 -327 -272 -404 -31 -29 -173 -103 -198 -103 -6 0 -11 -15 -11 -34 0 -32 1 -33 68 -51 245 -67 430 -253 473 -479 37 -196 -21 -387 -161 -527 -108 -108 -206 -150 -425 -180 -47 -6 -356 -13 -747 -16 l-668 -5 0 1116 0 1116 325 0 325 0 0 -467z m13370 -648 l0 -1115 -325 0 -325 0 0 1115 0 1115 325 0 325 0 0 -1115z m2320 865 l0 -250 -550 0 -550 0 0 -865 0 -865 -325 0 -325 0 0 1115 0 1115 875 0 875 0 0 -250z m2130 0 l0 -250 -550 0 -550 0 0 -865 0 -865 -325 0 -325 0 0 1115 0 1115 875 0 875 0 0 -250z m854 168 c13 -46 39 -131 57 -190 l32 -108 429 0 c235 0 428 1 428 3 0 2 25 86 55 187 30 101 55 185 55 187 0 2 149 3 331 3 186 0 329 -4 327 -9 -1 -5 -187 -506 -413 -1115 l-410 -1106 -366 0 -365 0 -410 1106 c-225 609 -410 1110 -412 1115 -2 5 135 9 317 9 l320 0 25 -82z m-11890 -1474 c22 -116 155 -360 254 -466 14 -15 23 -30 20 -33 -3 -3 -56 -25 -119 -49 -172 -65 -310 -139 -425 -228 -34 -26 -65 -44 -68 -41 -9 9 -7 90 4 163 35 223 96 386 206 546 58 85 105 144 115 144 4 0 10 -16 13 -36z m2643 -128 c57 -89 122 -234 153 -341 28 -98 57 -281 47 -292 -3 -3 -32 13 -64 34 -95 65 -279 156 -398 198 -27 9 -63 22 -78 28 l-28 10 24 26 c73 77 168 236 219 361 16 41 32 79 35 84 7 11 40 -30 90 -108z"></path><path id="paTfq9j0" d="M18183 7566 c-87 -32 -164 -94 -207 -164 -70 -114 -96 -245 -96 -487 0 -188 12 -280 49 -388 44 -127 142 -224 269 -268 72 -25 268 -27 348 -3 156 45 260 159 310 339 22 80 31 425 14 545 -22 157 -60 250 -134 328 -89 94 -174 122 -360 121 -111 0 -140 -3 -193 -23z"></path><path id="p1SDLia8U" d="M7110 6904 l0 -657 181 6 c112 4 204 13 242 23 194 50 281 158 317 395 18 114 8 515 -15 599 -35 129 -117 228 -220 266 -41 15 -91 18 -277 22 l-228 4 0 -658z"></path><path id="pyhQUtMYW" d="M10910 7163 c-1 -21 52 -215 117 -430 l118 -393 35 0 35 0 123 404 c67 221 122 415 122 429 l0 27 -275 0 -275 0 0 -37z"></path><path id="prcXE00vs" d="M13340 7326 l0 -266 193 0 c357 1 456 21 518 108 34 47 34 47 34 163 l0 116 -39 48 c-71 86 -87 90 -418 93 l-288 3 0 -265z"></path><path id="p1G85t7Vh8" d="M13340 6434 l0 -247 238 6 c287 6 322 14 379 84 l38 46 0 117 0 117 -38 46 c-58 70 -90 77 -379 77 l-238 0 0 -246z"></path><path id="p1HVL83eEz" d="M11017 3690 c-57 -10 -136 -49 -195 -97 -139 -113 -197 -339 -139 -539 65 -225 249 -346 502 -331 85 5 211 36 224 55 3 4 23 18 43 31 21 12 58 46 83 75 82 97 121 218 113 358 -10 186 -105 334 -266 414 -75 38 -80 39 -197 41 -66 1 -142 -2 -168 -7z"></path><path id="p18kfu2kti" d="M5853 3926 c-87 -32 -164 -94 -207 -164 -70 -114 -96 -245 -96 -487 0 -188 12 -280 49 -388 44 -127 142 -224 269 -268 72 -25 268 -27 348 -3 156 45 260 159 310 339 22 80 31 425 14 545 -22 157 -60 250 -134 328 -89 94 -174 122 -360 121 -111 0 -140 -3 -193 -23z"></path><path id="p4td6Fcue" d="M3140 2816 l0 -266 173 0 c346 1 442 22 501 108 27 38 31 52 34 138 4 84 2 102 -18 145 -14 30 -38 59 -62 75 -70 49 -122 57 -385 62 l-243 4 0 -266z"></path><path id="p2TyAS5e0" d="M22060 3523 c-1 -21 52 -215 117 -430 l118 -393 35 0 35 0 123 404 c67 221 122 415 122 429 l0 27 -275 0 -275 0 0 -37z"></path></g></g><g id="l3WyXLZ9BeG5auvYWXK1PDZ" fill="rgb(255,201,14)" style="transform: none;"><g style="transform: none;"><path id="p1HWR0z1yo" d="M18115 8074 c-321 -50 -553 -187 -713 -422 -98 -145 -152 -284 -187 -487 -15 -83 -17 -134 -11 -305 5 -191 8 -213 40 -330 111 -408 360 -655 769 -762 120 -31 125 -32 362 -32 l240 -1 135 34 c410 104 665 352 767 746 30 119 34 148 40 330 7 219 -1 300 -43 472 -101 413 -409 686 -854 758 -119 19 -419 18 -545 -1z m416 -530 c68 -20 112 -46 167 -98 77 -73 120 -175 142 -336 17 -115 8 -405 -14 -485 -49 -179 -154 -294 -310 -339 -77 -23 -218 -21 -288 3 -127 44 -225 141 -269 268 -35 103 -49 201 -49 358 0 355 91 542 303 621 78 29 233 33 318 8z"></path><path id="p16hmRqD9o" d="M6430 6904 l0 -1146 608 5 c651 5 714 9 872 60 243 77 446 279 543 542 60 162 78 271 84 500 9 331 -17 483 -118 683 -57 113 -72 132 -168 231 -143 144 -219 185 -451 239 l-115 26 -627 4 -628 3 0 -1147z m1155 602 c103 -38 186 -137 220 -266 23 -85 33 -428 16 -539 -37 -236 -124 -345 -317 -395 -32 -8 -128 -18 -211 -22 l-153 -7 0 628 0 627 198 -4 c156 -4 207 -8 247 -22z"></path><path id="p1G71qKPlC" d="M8940 6905 l0 -1145 355 0 355 0 0 1145 0 1145 -355 0 -355 0 0 -1145z"></path><path id="p13rz6kX0S" d="M9952 8038 c3 -7 193 -523 423 -1145 l419 -1133 395 0 396 0 419 1133 c231 622 421 1138 424 1145 3 9 -74 12 -367 12 -204 0 -371 -1 -371 -3 0 -2 -25 -86 -55 -187 -30 -101 -55 -185 -55 -187 0 -2 -179 -3 -398 -3 l-399 0 -32 108 c-18 59 -44 144 -57 190 l-25 82 -361 0 c-284 0 -359 -3 -356 -12z m1452 -945 c-13 -43 -68 -223 -121 -400 -54 -178 -100 -323 -103 -323 -5 0 -241 778 -240 793 0 4 110 7 244 7 l244 0 -24 -77z"></path><path id="p2EVQB0iO" d="M12660 6904 l0 -1146 728 5 c683 4 732 5 807 24 150 37 235 84 326 180 94 99 139 218 139 368 0 158 -43 262 -149 363 -45 43 -90 74 -141 97 -73 33 -74 34 -47 44 15 6 40 14 55 17 15 4 63 25 107 47 188 96 285 263 285 490 0 169 -30 266 -120 385 -93 122 -209 198 -348 227 -192 40 -297 45 -979 45 l-663 0 0 -1146z m1271 630 c26 -12 62 -42 85 -69 39 -48 39 -49 39 -134 0 -82 -2 -88 -34 -133 -61 -85 -163 -107 -488 -108 l-163 0 0 236 0 235 258 -3 c237 -3 261 -5 303 -24z m-93 -899 c39 -12 60 -26 89 -62 37 -46 38 -47 38 -133 0 -86 0 -87 -38 -133 -55 -68 -95 -77 -349 -84 l-208 -6 0 217 0 216 208 0 c158 0 221 -4 260 -15z"></path><path id="pBenLlmQt" d="M15140 6905 l0 -1145 355 0 355 0 0 865 0 865 550 0 550 0 0 280 0 280 -905 0 -905 0 0 -1145z"></path><path id="p16fJM9ccH" d="M11616 5079 c-21 -12 -44 -25 -50 -31 -6 -5 -76 -46 -156 -91 -218 -124 -222 -127 -175 -149 14 -6 25 -14 25 -17 -1 -8 -83 -62 -162 -106 -59 -32 -67 -39 -58 -55 6 -10 19 -22 30 -25 30 -10 24 -19 -27 -45 -27 -12 -55 -28 -63 -35 -8 -7 -40 -26 -70 -42 -30 -16 -64 -34 -75 -40 -11 -6 -37 -16 -58 -22 -82 -27 -252 -115 -297 -155 -14 -12 -50 -41 -81 -64 -65 -49 -136 -122 -200 -206 -47 -62 -114 -167 -128 -201 -5 -11 -19 -42 -31 -67 -12 -26 -23 -53 -24 -60 -1 -7 -13 -44 -25 -83 -12 -38 -25 -90 -27 -115 -3 -25 -9 -72 -14 -105 -21 -134 -1 -357 46 -505 29 -93 107 -262 130 -281 8 -6 14 -16 14 -21 0 -20 93 -139 163 -208 246 -246 554 -375 897 -375 144 0 325 29 405 65 22 10 51 21 65 25 34 10 112 50 185 93 264 159 459 411 554 717 35 114 38 134 47 300 8 148 -11 299 -56 441 -33 102 -125 290 -164 334 -12 14 -41 50 -64 81 -23 31 -68 81 -100 111 -55 52 -204 168 -215 168 -4 0 -28 13 -54 28 -55 32 -165 82 -192 87 -10 2 -49 13 -87 24 -38 11 -85 22 -104 25 -94 12 -120 19 -120 33 0 8 43 58 96 113 l95 98 -21 20 c-14 13 -19 25 -14 34 16 27 159 215 191 251 33 37 44 77 21 77 -7 -1 -31 -10 -52 -21z m-262 -1454 c147 -72 248 -220 263 -383 13 -144 -78 -332 -195 -403 -20 -13 -40 -27 -43 -31 -10 -15 -130 -48 -195 -55 -35 -3 -82 -1 -110 6 -27 6 -60 13 -72 16 -27 5 -87 39 -148 83 -57 42 -114 133 -141 226 -28 95 -29 141 -4 243 31 131 112 233 238 298 67 34 127 45 240 40 83 -3 100 -7 167 -40z"></path><path id="ptLzlaRmY" d="M5785 4434 c-321 -50 -553 -187 -713 -422 -98 -145 -152 -284 -187 -487 -15 -83 -17 -134 -11 -305 5 -191 8 -213 40 -330 111 -408 360 -655 769 -762 120 -31 125 -32 362 -32 l240 -1 135 34 c410 104 665 352 767 746 30 119 34 148 40 330 7 219 -1 300 -43 472 -101 413 -409 686 -854 758 -119 19 -419 18 -545 -1z m416 -530 c68 -20 112 -46 167 -98 77 -73 120 -175 142 -336 17 -115 8 -405 -14 -485 -49 -179 -154 -294 -310 -339 -77 -23 -218 -21 -288 3 -127 44 -225 141 -269 268 -35 103 -49 201 -49 358 0 355 91 542 303 621 78 29 233 33 318 8z"></path><path id="pqvnUd5wP" d="M8246 4434 c-135 -18 -265 -57 -360 -107 -142 -76 -280 -251 -339 -432 -29 -88 -54 -222 -43 -232 7 -7 503 -42 607 -42 l55 -1 13 64 c27 136 88 221 198 277 66 33 69 34 193 34 124 -1 125 -1 184 -35 32 -19 73 -52 90 -74 29 -35 31 -43 31 -115 -1 -74 -2 -79 -38 -123 -63 -77 -140 -109 -437 -183 -571 -142 -810 -352 -810 -710 1 -318 228 -559 600 -637 141 -29 477 -36 625 -14 393 60 605 242 671 572 9 47 15 86 13 88 -5 4 -555 36 -621 36 -35 0 -48 -4 -48 -15 0 -31 -44 -128 -73 -162 -16 -19 -58 -49 -91 -66 -58 -30 -67 -31 -176 -32 -99 0 -121 3 -155 22 -79 42 -116 134 -81 201 34 66 79 84 429 167 235 57 372 102 507 168 91 45 117 63 195 142 146 145 190 263 183 480 -4 98 -10 134 -32 199 -105 296 -346 477 -708 530 -130 20 -441 20 -582 0z"></path><path id="p14a7cOTfm" d="M14006 4439 c-285 -30 -449 -101 -602 -260 -125 -131 -173 -221 -217 -404 -42 -174 -47 -282 -47 -992 l0 -663 355 0 355 0 0 688 c0 378 4 725 10 771 17 151 85 255 200 310 51 24 66 26 185 26 119 0 135 -2 185 -26 73 -34 144 -108 172 -178 l23 -56 3 -767 2 -768 356 0 355 0 -3 782 -3 783 -29 100 c-107 376 -373 604 -766 655 -89 11 -422 11 -534 -1z"></path><path id="pwvjAyCKy" d="M24436 4434 c-135 -18 -265 -57 -360 -107 -142 -76 -280 -251 -339 -432 -29 -88 -54 -222 -43 -232 7 -7 503 -42 607 -42 l55 -1 13 64 c27 136 88 221 198 277 66 33 69 34 193 34 124 -1 125 -1 184 -35 32 -19 73 -52 90 -74 29 -35 31 -43 31 -115 -1 -74 -2 -79 -38 -123 -63 -77 -140 -109 -437 -183 -571 -142 -810 -352 -810 -710 1 -318 228 -559 600 -637 141 -29 477 -36 625 -14 393 60 605 242 671 572 9 47 15 86 13 88 -5 4 -555 36 -621 36 -35 0 -48 -4 -48 -15 0 -31 -44 -128 -73 -162 -16 -19 -58 -49 -91 -66 -58 -30 -67 -31 -176 -32 -99 0 -121 3 -155 22 -79 42 -116 134 -81 201 34 66 79 84 429 167 235 57 372 102 507 168 91 45 117 63 195 142 146 145 190 263 183 480 -4 98 -10 134 -32 199 -105 296 -346 477 -708 530 -130 20 -441 20 -582 0z"></path><path id="pl2D8vkei" d="M2460 3264 l0 -1146 698 5 c416 3 729 10 777 16 219 30 317 72 425 180 122 122 170 246 170 437 0 173 -28 268 -114 383 -92 123 -214 204 -369 246 l-68 18 53 22 c127 52 165 83 272 223 39 52 263 459 387 704 l29 58 -399 0 -399 0 -214 -391 c-131 -241 -229 -410 -255 -439 -49 -55 -120 -85 -220 -96 l-63 -7 0 467 0 466 -355 0 -355 0 0 -1146z m1187 -236 c123 -35 180 -114 170 -234 -6 -83 -41 -139 -108 -172 -55 -27 -187 -41 -396 -42 l-143 0 0 236 0 236 213 -4 c148 -3 228 -9 264 -20z"></path><path id="pTeCNQQa8" d="M15830 3265 l0 -1145 355 0 355 0 0 1145 0 1145 -355 0 -355 0 0 -1145z"></path><path id="pNOr6qj1i" d="M17050 3265 l0 -1145 355 0 355 0 0 865 0 865 550 0 550 0 0 280 0 280 -905 0 -905 0 0 -1145z"></path><path id="pywY2C1yy" d="M19180 3265 l0 -1145 355 0 355 0 0 865 0 865 550 0 550 0 0 280 0 280 -905 0 -905 0 0 -1145z"></path><path id="pFX4N0RNI" d="M21102 4398 c3 -7 193 -523 423 -1145 l419 -1133 395 0 396 0 419 1133 c231 622 421 1138 424 1145 3 9 -74 12 -367 12 -204 0 -371 -1 -371 -3 0 -2 -25 -86 -55 -187 -30 -101 -55 -185 -55 -187 0 -2 -179 -3 -398 -3 l-399 0 -32 108 c-18 59 -44 144 -57 190 l-25 82 -361 0 c-284 0 -359 -3 -356 -12z m1452 -945 c-13 -43 -68 -223 -121 -400 -54 -178 -100 -323 -103 -323 -5 0 -241 778 -240 793 0 4 110 7 244 7 l244 0 -24 -77z"></path></g></g><g id="l7RbnhnjEOFbhuMDhXWiUnV" fill="rgb(254,174,201)" style="transform: none;"><g style="transform: none;"><path id="phskmT7VY" d="M9870 2883 c-58 -66 -146 -194 -183 -268 -103 -206 -155 -468 -131 -649 l7 -47 26 24 c122 113 321 229 516 302 55 20 115 43 134 51 l33 14 -44 52 c-139 164 -244 355 -278 511 -8 32 -17 60 -21 63 -4 2 -30 -22 -59 -53z"></path><path id="p1FL5M0fRY" d="M12451 2871 c-6 -10 -8 -20 -6 -23 7 -6 -58 -162 -96 -233 -36 -65 -127 -194 -185 -262 -25 -30 -32 -44 -23 -47 191 -52 393 -145 560 -257 48 -32 89 -55 93 -52 9 10 7 109 -5 202 -20 166 -99 381 -192 528 -41 64 -119 163 -129 163 -4 0 -12 -8 -17 -19z"></path></g></g></svg>